@startuml
'https://plantuml.com/class-diagram

interface java.sql.Connection

interface com.mysql.jdbc.Connection

interface oracle.jdbc.Connection

interface MySQLConnection

class ConnectionImpl implements MySQLConnection{}

java.sql.Connection <|--- com.mysql.jdbc.Connection
java.sql.Connection <|--- oracle.jdbc.Connection
com.mysql.jdbc.Connection <|--- MySQLConnection

class DriverManager{
    java.sql.Driver ;
    registerDriver(Driver);
    getConnection();
}

class Client{}

Client ...>DriverManager
DriverManager ...> java.sql.Connection



@enduml